Coordinates
version=1
nRows=19
nColumns=36
inDegrees=yes

Units are S.I. units (second, meters, Newtons, ...)
If the header above contains a line with 'inDegrees', this indicates whether rotational values are in degrees (yes) or radians (no).

endheader
time	pelvis_tilt	pelvis_list	pelvis_rotation	pelvis_tx	pelvis_ty	pelvis_tz	hip_flexion_r	hip_adduction_r	hip_rotation_r	knee_angle_r	knee_angle_r_beta	ankle_angle_r	subtalar_angle_r	mtp_angle_r	hip_flexion_l	hip_adduction_l	hip_rotation_l	knee_angle_l	knee_angle_l_beta	ankle_angle_l	subtalar_angle_l	mtp_angle_l	lumbar_extension	lumbar_bending	lumbar_rotation	arm_flex_r	arm_add_r	arm_rot_r	elbow_flex_r	pro_sup_r	arm_flex_l	arm_add_l	arm_rot_l	elbow_flex_l	pro_sup_l
      3.75000000	    -24.72830666	     -4.09185759	     12.51579795	      0.75726284	      0.71510186	      0.06531079	     79.21879140	    -10.32964770	      3.59335415	     84.45102080	      1.47394837	     38.29833100	     -0.81346695	     -7.49999987	     78.60352373	    -12.09070410	     -1.98497815	     81.88363455	      1.42913903	     28.66566741	    -12.77784335	     -7.49999987	    -18.30281784	     -3.59564378	      3.46581201	     31.01633742	    -22.24243948	      6.08296931	    106.99037635	     87.13369229	     27.50643541	    -23.25920250	     15.29337900	    111.14272640	     91.10936312
      3.76666670	    -25.31061456	     -4.28611723	     12.49206656	      0.75775087	      0.70578100	      0.06458545	     81.23447695	    -10.42020700	      3.62174363	     86.04681706	      1.50180027	     38.36060881	     -0.99210204	     -7.49999987	     80.76745154	    -12.44239541	     -1.76216882	     83.51476510	      1.45760763	     28.61116218	    -12.88143696	     -7.49999987	    -19.50480793	     -3.76064130	      3.38346730	     32.59880979	    -22.26378392	      5.92669789	    107.35459412	     87.12651708	     29.43861677	    -23.39869441	     14.89427767	    111.24599696	     91.08757303
      3.78333330	    -26.90986967	     -4.76473131	     12.32518988	      0.75815829	      0.69469045	      0.06486172	     84.29556100	    -10.43250813	      3.65397420	     87.53597082	      1.52779090	     38.35831526	     -1.20921947	     -7.49999987	     83.92731159	    -12.78468629	     -1.41569872	     85.01553044	      1.48380092	     28.71036489	    -12.75353608	     -7.49999987	    -19.20733556	     -3.85980407	      3.24159001	     33.26388683	    -22.87953034	      6.41405604	    109.34630858	     87.15221197	     31.02172892	    -24.44571867	     15.51243965	    112.93662363	     91.16318482
      3.80000000	    -27.74675941	     -5.00436301	     12.28158828	      0.75394510	      0.68442467	      0.06723319	     86.47287619	    -10.52635735	      3.77202496	     89.01270984	      1.55356486	     38.43090046	     -1.45474571	     -7.49999987	     86.13476123	    -13.03318657	     -1.13677530	     86.46443708	      1.50908911	     28.71671528	    -12.84220678	     -7.49999987	    -19.30605976	     -4.08769577	      3.04137437	     34.31021398	    -23.07341119	      6.11605084	    110.17170991	     87.07334061	     32.38829429	    -25.25630004	     15.95215591	    113.66980719	     91.24190075
      3.81666670	    -28.04477244	     -5.21078706	     12.32030515	      0.75911255	      0.68366252	      0.06965873	     87.56408435	    -10.56220431	      3.75384970	     90.02560038	      1.57124314	     38.58543596	     -1.61343766	     -7.49999987	     87.30873200	    -13.21061364	     -0.77578488	     87.45340818	      1.52634991	     28.81838190	    -12.93510247	     -7.49999987	    -20.17451596	     -4.31101616	      2.94232858	     34.72729143	    -22.87624345	      5.91675558	    110.10990519	     87.03007969	     33.26780521	    -25.57309005	     15.69901870	    113.40215888	     91.24120113
      3.83333330	    -28.39637361	     -5.39040329	     12.29317930	      0.75856041	      0.68256662	      0.06446481	     88.37614003	    -10.62126124	      3.72720585	     90.60861820	      1.58141872	     38.60276956	     -1.72665916	     -7.49999987	     88.14943065	    -13.33745663	     -0.51818663	     88.09636390	      1.53757161	     28.93664813	    -12.90637187	     -7.49999987	    -21.05491547	     -4.43121613	      2.52001553	     34.94917442	    -22.97452228	      5.63362585	    110.11854324	     86.99147644	     33.48896358	    -25.62736010	     15.81289346	    113.28700917	     91.25558421
      3.85000000	    -29.18960750	     -5.74822176	     12.25737708	      0.75400051	      0.67091577	      0.06647450	     89.77767413	    -10.68872975	      3.62255121	     91.33024325	      1.59401345	     38.60141149	     -1.85399468	     -7.49999987	     89.68226859	    -13.46869663	     -0.18102371	     88.88825145	      1.55139265	     29.35999400	    -12.50560388	     -7.49999987	    -20.91952315	     -4.41321195	      2.32499358	     34.93633882	    -23.31838469	      5.33096533	    110.95919284	     85.89134388	     34.36191375	    -26.36331476	     17.02637187	    114.87929250	     90.20274678
      3.86666670	    -29.73579410	     -5.97529070	     12.27786911	      0.75430605	      0.66501067	      0.06657678	     90.89535892	    -10.80513544	      3.58942266	     92.03981936	      1.60639789	     38.55603546	     -2.13896296	     -7.49999987	     90.85058903	    -13.51623969	      0.10710125	     89.63882445	      1.56449262	     29.80013370	    -12.23792134	     -7.49999987	    -20.96441659	     -4.38893483	      2.11039190	     34.92260713	    -23.81932038	      5.18224618	    112.11082084	     85.19910755	     35.30660400	    -27.03973229	     17.86739679	    115.54823326	     89.73348789
      3.88333330	    -30.09189759	     -6.05365647	     12.23161343	      0.75467996	      0.65781781	      0.06602748	     91.87216864	    -10.81732218	      3.71879544	     92.88857974	      1.62121155	     38.61269652	     -2.41078329	     -7.49999987	     91.78895000	    -13.59348705	      0.36463333	     90.48126953	      1.57919606	     30.19183754	    -12.14624651	     -7.49999987	    -20.75470911	     -4.76256587	      3.43353498	     32.99105314	    -25.37954879	      2.96564878	    114.59589952	     83.80669794	     38.03506167	    -26.52343267	     20.64861906	    114.78704391	     90.18550877
      3.90000000	    -30.16611620	     -6.11196220	     12.16974569	      0.75470431	      0.65769628	      0.06638207	     92.35542022	    -10.72267271	      3.81234216	     93.47680660	      1.63147805	     38.62275591	     -2.74713927	     -7.49999987	     92.34383060	    -13.63663287	      0.64124493	     91.13019091	      1.59052188	     30.40480139	    -12.31634664	     -7.49999987	    -21.06036412	     -4.79218295	      3.21913657	     33.15785441	    -25.39058831	      2.95986668	    114.53013172	     83.72607016	     38.76201733	    -26.65772642	     20.54365728	    114.74072773	     89.97893174
      3.91666670	    -30.23239990	     -6.26078275	     12.21916529	      0.75950401	      0.65653851	      0.06855251	     92.60472983	    -10.68136636	      3.82358766	     93.91608428	      1.63914489	     38.70908847	     -2.79345090	     -7.49999987	     92.68917197	    -13.58283753	      0.94048764	     91.53190372	      1.59753309	     30.61571454	    -12.32187268	     -7.49999987	    -21.20506369	     -4.81971011	      3.00818445	     32.80733593	    -25.26995029	      3.09182720	    114.51908162	     83.72962824	     39.11463951	    -26.82687830	     20.49177213	    114.72002934	     89.98223887
      3.93333330	    -30.65484597	     -6.53271134	     12.23258634	      0.75860384	      0.65354551	      0.06913951	     93.17234520	    -10.62118281	      3.75835403	     94.25807023	      1.64511367	     38.91642373	     -2.93991416	     -7.49999987	     93.37608517	    -13.63081815	      1.21333624	     91.85473197	      1.60316751	     31.22947622	    -11.71870109	     -7.49999987	    -20.80442980	     -4.75481304	      2.94605933	     33.11319331	    -25.92070932	      3.46886105	    114.54738163	     83.17811282	     40.27047922	    -26.78035971	     21.50051047	    115.50617877	     89.32733415
      3.95000000	    -30.64754767	     -6.69006664	     12.22555786	      0.75812536	      0.65232841	      0.06912516	     93.23686394	    -10.45761467	      3.70592905	     94.51128264	      1.64953306	     38.98885400	     -3.26225656	     -7.49999987	     93.56006117	    -13.74402304	      1.42052369	     92.11972608	      1.60779253	     31.52447384	    -11.49515538	     -7.49999987	    -20.86124679	     -4.77827874	      2.85549774	     33.49946177	    -26.21680473	      3.58280458	    114.85151663	     81.89124601	     41.74503956	    -27.12084241	     22.86978910	    115.84774061	     87.97684144
      3.96666670	    -30.79759688	     -6.83006373	     12.23087036	      0.75757766	      0.65193426	      0.06949348	     93.40881300	    -10.35286219	      3.66766867	     94.63787905	      1.65174259	     39.03715756	     -3.42591903	     -7.49999987	     93.83245632	    -13.83479939	      1.51803703	     92.27729467	      1.61054262	     31.65099195	    -11.35142509	     -7.49999987	    -20.60830799	     -4.79049584	      2.88647305	     33.52837124	    -26.68702834	      3.80992494	    114.49318978	     81.75778473	     42.58348458	    -26.99170586	     23.79768539	    115.55437150	     87.95493251
      3.98333330	    -30.88871838	     -6.98239788	     12.23632942	      0.75763235	      0.65450973	      0.06868100	     93.35064215	    -10.27331148	      3.54815645	     94.49380598	      1.64922804	     39.04547523	     -3.53834573	     -7.49999987	     93.89601747	    -13.89173526	      1.59970610	     92.21660836	      1.60948344	     31.73089983	    -11.21276680	     -7.49999987	    -20.32776938	     -4.78130451	      2.86133933	     33.44813599	    -26.74281911	      4.06889612	    113.42789351	     80.68795209	     43.33009438	    -26.80949567	     24.90419885	    114.54299396	     86.88648598
      4.00000000	    -30.88359536	     -7.05823731	     12.20569458	      0.76224442	      0.65743096	      0.07161109	     92.96491468	    -10.07472756	      3.46573815	     94.16556861	      1.64349921	     39.07157784	     -3.73917729	     -7.49999987	     93.50929072	    -14.01122034	      1.62351055	     91.86456063	      1.60333905	     31.91144085	    -10.89893854	     -7.49999987	    -20.08367038	     -5.03913166	      3.09105063	     32.69246323	    -26.62218448	      3.90472292	    113.16264232	     80.90724841	     43.29136798	    -26.84662456	     25.12730648	    113.70022329	     87.32394433
      4.01666670	    -30.93093408	     -7.20014865	     12.20294569	      0.76250033	      0.66012467	      0.07083954	     92.50043799	     -9.95003256	      3.24533157	     93.66779662	      1.63481145	     39.12889795	     -3.69742731	     -7.49999987	     93.10305904	    -14.12279361	      1.63848523	     91.38846016	      1.59502953	     31.98652125	    -10.56993441	     -7.49999987	    -19.77631197	     -5.12966499	      3.03381672	     32.17820112	    -26.43805019	      3.63254033	    112.37926203	     80.12753906	     43.08228658	    -26.63884050	     25.63211960	    113.19018639	     86.59531927
      4.03333330	    -30.88722280	     -7.22851049	     12.18247868	      0.76193941	      0.66476243	      0.07112852	     91.87228433	     -9.81591687	      3.10138435	     93.05428723	      1.62410370	     39.03219816	     -3.78375807	     -7.49999987	     92.45643072	    -14.17950014	      1.57038246	     90.75389596	      1.58395429	     32.05667110	    -10.24842698	     -7.49999987	    -19.69896214	     -5.15357988	      3.15220347	     31.91784032	    -26.42493637	      3.88919135	    111.31705432	     79.45728338	     43.31525488	    -26.54537321	     26.17419113	    112.50742686	     85.97464723
      4.05000000	    -30.86845773	     -7.22280583	     12.15147355	      0.75712361	      0.66750602	      0.06831961	     91.20292077	     -9.79834393	      2.88477741	     92.21677274	      1.60948631	     38.78494594	     -3.73697078	     -7.49999987	     91.81316991	    -14.19312854	      1.38089671	     89.98820337	      1.57059044	     32.02224007	     -9.93939040	     -7.49999987	    -19.80627538	     -5.06061794	      3.25082896	     32.17816475	    -27.03164396	      4.16153862	    110.72985878	     80.19154164	     44.21093247	    -26.18752820	     27.32698469	    111.34911004	     87.22083173
